<svg xmlns="http://www.w3.org/2000/svg"
  xmlns:xlink="http://www.w3.org/1999/xlink" width="73px" height="90px" viewBox="0 0 73 90" version="1.1">
  <g stroke="none" stroke-width="1" fill="none" fill-rule="evenodd">
    <path d="M14,0 L59.0000325,0 C66.732019,-3.19669972e-15 73.0000325,6.2680135 73.0000325,14 L73.0000325,76 C73.0000325,83.7319865 66.732019,90 59.0000325,90 L14,90 C6.2680135,90 1.67924438e-13,83.7319865 1.63424829e-13,76 L1.63424829e-13,14 C1.60701577e-13,6.2680135 6.2680135,-3.56013962e-16 14,0 Z" fill="#619F09" fill-rule="nonzero"/>
    <path d="M14,0 L59.0000325,0 C66.732019,2.1323708e-15 73.0000325,6.2680135 73.0000325,14 L73.0000325,72 C73.0000325,79.7319865 66.732019,86 59.0000325,86 L14,86 C6.2680135,86 1.67924438e-13,79.7319865 1.63424829e-13,72 L1.63424829e-13,14 C1.64254291e-13,6.2680135 6.2680135,1.42034288e-15 14,0 Z" fill="#7AC70C" fill-rule="nonzero"/>
    <path d="M32.814351,18.3062566 L32.8318601,18.3365833 L33.880257,20.1593561 C34.0908071,20.5254189 33.9655657,20.9928259 33.6001926,21.2045705 L16.3165402,31.2209611 C15.9494751,31.433685 15.479431,31.3077371 15.2679052,30.9399802 L14.2194969,29.1172139 C11.8482517,24.9945639 12.5029345,19.958667 15.4938007,16.5836636 C16.240846,15.7406703 18.5412529,16.5700741 19.5690487,15.9744325 C21.075543,15.1013793 21.2986608,13.0672525 22.9257989,12.9755796 C26.8323688,12.7554835 30.7182339,14.6893487 32.814351,18.3062566 Z" fill="#CC1E1E"/>
    <path d="M27.137783,8.27894633 C36.285221,8.27894633 43.7006847,15.69441 43.7006847,24.841848 C43.7006847,25.2651204 43.3575546,25.6082506 42.9342821,25.6082506 L9.75637704,25.6082506 C9.33310459,25.6082506 8.98997448,25.2651204 8.98997448,24.841848 C8.98997448,19.9587906 11.1030889,15.5692776 14.4647638,12.5378628 L18.3427859,14.7443436 C18.4799705,14.8223983 18.6349028,14.8639123 18.7927356,14.8649073 C19.3017111,14.8681159 19.7169184,14.4581109 19.720127,13.9491353 L19.7496511,9.32408113 C21.5556358,8.64839206 23.5111117,8.27894633 25.5528761,8.27894633 L27.137783,8.27894633 Z" fill="#EA2B2B"/>
    <path d="M33.938496,16.6833496 L39.818304,16.6833496 C47.432729,16.6833496 53.60544,22.8560607 53.60544,30.4704856 L53.60544,51.2433496 L20.15136,51.2433496 L20.15136,30.4704856 C20.15136,22.8560607 26.324071,16.6833496 33.938496,16.6833496 Z" fill="#E2E2E2"/>
    <path d="M49.9261524,25.4122728 C50.4064206,26.423818 49.9757356,27.6331717 48.9641904,28.11344 C47.9526453,28.5937082 46.7432916,28.1630232 46.2630233,27.151478 C45.5124084,25.5705264 44.3427363,24.5174129 42.9437199,24.1430334 C41.8620129,23.8535665 41.2197753,22.7420104 41.5092421,21.6603033 C41.7987092,20.5785963 42.9102653,19.9363588 43.9919724,20.2258253 C46.5992803,20.9235464 48.6877165,22.8038685 49.9261524,25.4122728 Z" fill="#F7F7F7" fill-rule="nonzero"/>
    <polygon fill="#B8B8B8" points="29.45952 37.9723096 44.29728 37.9723096 44.29728 52.1649496 29.45952 52.1649496"/>
    <path d="M53.60544,39.9076696 L53.60544,51.2503592 C53.60544,51.9358599 53.2590592,52.5749419 52.6847036,52.9491433 L44.5746236,58.2329833 C44.2453513,58.4475092 43.8608305,58.5617192 43.46784,58.5617192 C42.3480716,58.5617192 41.44032,57.6539676 41.44032,56.5341992 L41.44032,41.9351896 C41.44032,40.8154212 42.3480716,39.9076696 43.46784,39.9076696 L53.60544,39.9076696 Z" fill="#E2E2E2"/>
    <path d="M38.4912,35.2996696 L47.2601583,33.10743 C48.2477355,32.8605357 49.2484724,33.4609778 49.4953667,34.448555 C49.5319176,34.5947588 49.5504,34.7448933 49.5504,34.8955967 L49.5504,38.0644696 C49.5504,39.0824409 48.7251713,39.9076696 47.7072,39.9076696 L38.4912,39.9076696 L38.4912,35.2996696 Z" fill="#B8B8B8"/>
    <path d="M20.15136,39.9076696 L30.28896,39.9076696 C31.4087284,39.9076696 32.31648,40.8154212 32.31648,41.9351896 L32.31648,56.5341992 C32.31648,57.6539676 31.4087284,58.5617192 30.28896,58.5617192 C29.8959695,58.5617192 29.5114487,58.4475092 29.1821764,58.2329833 L21.0720964,52.9491433 C20.4977408,52.5749419 20.15136,51.9358599 20.15136,51.2503592 L20.15136,39.9076696 Z" fill="#E2E2E2"/>
    <path d="M35.7264,35.2996696 L35.7264,39.9076696 L26.0938203,39.9076696 C25.0758491,39.9076696 24.2506203,39.0824409 24.2506203,38.0644696 L24.2506203,34.8748817 C24.2506203,34.7294564 24.2678308,34.584542 24.3018928,34.443162 C24.5403251,33.4535077 25.5358859,32.844522 26.5255401,33.0829542 L35.7264,35.2996696 Z" fill="#B8B8B8"/>
    <path d="M36.8566406,28.1250799 C37.5427414,28.1250799 38.1231023,28.6324719 38.2147402,29.3124255 L39.7823926,40.944406 C39.8561936,41.4920097 39.7033023,42.0460127 39.3590878,42.4782543 L37.6496652,44.6248338 C37.6020869,44.6845795 37.5479093,44.7387571 37.4881636,44.7863354 C37.0501882,45.1351159 36.4123965,45.0628092 36.063616,44.6248338 L34.3541933,42.4782543 C34.0099789,42.0460127 33.8570876,41.4920097 33.9308886,40.944406 L35.498541,29.3124255 C35.5901789,28.6324719 36.1705398,28.1250799 36.8566406,28.1250799 Z" fill="#E2E2E2"/>
  </g>
</svg>