<svg xmlns="http://www.w3.org/2000/svg" width="20" height="21" viewBox="147 69 20 21" version="1.1">
  <path d="M166.69 81.09v-2.68l-2.21-.3a7.69 7.69 0 0 0-1-2.62l1.27-1.68-1.89-1.89-1.58 1.2a7.71 7.71 0 0 0-2.77-1.22l-.23-1.9h-2.68l-.26 1.85a7.71 7.71 0 0 0-2.86 1.2L151 71.91l-1.9 1.89 1.18 1.56a7.69 7.69 0 0 0-1.06 2.77l-2 .28v2.68l2.16.3a7.71 7.71 0 0 0 1.13 2.48l-1.41 1.83 1.9 1.89 1.93-1.46a7.69 7.69 0 0 0 2.34.91l.34 2.46h2.68l.35-2.5a7.69 7.69 0 0 0 2.26-.93l2 1.52 1.89-1.89-1.47-1.95a7.71 7.71 0 0 0 1-2.34l2.37-.32zm-9.84 1.78a3.42 3.42 0 1 1 .01 0h-.01z" fill="#E8E8E8" fill-rule="nonzero"/>
  <script xmlns=""/>
</svg>

<svg xmlns="http://www.w3.org/2000/svg" width="20" height="21" viewBox="147 69 20 21" version="1.1">
  <path d="M166.69 81.09v-2.68l-2.21-.3a7.69 7.69 0 0 0-1-2.62l1.27-1.68-1.89-1.89-1.58 1.2a7.71 7.71 0 0 0-2.77-1.22l-.23-1.9h-2.68l-.26 1.85a7.71 7.71 0 0 0-2.86 1.2L151 71.91l-1.9 1.89 1.18 1.56a7.69 7.69 0 0 0-1.06 2.77l-2 .28v2.68l2.16.3a7.71 7.71 0 0 0 1.13 2.48l-1.41 1.83 1.9 1.89 1.93-1.46a7.69 7.69 0 0 0 2.34.91l.34 2.46h2.68l.35-2.5a7.69 7.69 0 0 0 2.26-.93l2 1.52 1.89-1.89-1.47-1.95a7.71 7.71 0 0 0 1-2.34l2.37-.32zm-9.84 1.78a3.42 3.42 0 1 1 .01 0h-.01z" fill="#E8E8E8" fill-rule="nonzero"/>
  <script xmlns=""/>
</svg>