<svg width="56" height="46" viewBox="0 0 56 46" fill="none"
  xmlns="http://www.w3.org/2000/svg">
  <path d="M34.2346 3.25135C35.3157 2.1269 34.7053 0.276787 33.1512 0.143156C32.0512 0.0485729 30.9331 0 29.8002 0C13.342 0 0 10.2517 0 22.8979C0 26.3985 1.02236 29.7157 2.85016 32.6827C3.47761 33.7012 4.88715 33.7751 5.71626 32.9128L34.2346 3.25135Z" fill="#EE5555"/>
  <path d="M55.0954 12.5231C53.3548 9.61289 49.8186 6.8733 47.2219 5.21074C46.2417 4.58319 44.9772 4.77038 44.1616 5.60066C34.5035 15.4328 18.3374 31.8498 12.05 38.0427C10.9724 39.1041 10.996 40.8688 12.249 41.716C16.2271 44.4058 20.9121 45.5851 23.4852 45.9072C24.1853 45.9949 24.8657 45.7259 25.3691 45.2315C34.775 35.9934 50.2041 19.9015 54.7166 15.0879C55.3787 14.3818 55.5923 13.3539 55.0954 12.5231Z" fill="#EE5555"/>

  <g transform="translate(-4, -10)">
    <g transform="scale(4)">
      <path d="M6.76233 6.12026C6.61795 5.10957 7.4022 4.20532 8.42315 4.20532V4.20532C9.44411 4.20532 10.2284 5.10957 10.084 6.12026L9.74792 8.47263C9.65374 9.1319 9.08912 9.6216 8.42315 9.6216V9.6216C7.75719 9.6216 7.19257 9.1319 7.09839 8.47263L6.76233 6.12026Z" fill="white"/>
      <circle cx="8.42333" cy="11.5559" r="1.16063" fill="white"/>
    </g>
  </g>
</svg>