<svg xmlns="http://www.w3.org/2000/svg" width="612" height="600" viewBox="0 0 612 600" fill="none">
  <path fill-rule="evenodd" clip-rule="evenodd" d="M460.081 286.62C468.356 356.938 425.572 423.273 358.139 444.677C290.706 466.081 217.638 436.518 184.038 374.238C126.746 376.596 74.7218 342.665 54.1802 290.466C52.1359 285.258 52.7058 279.383 55.7132 274.662C58.7205 269.941 63.8019 266.944 69.3819 266.602L145.797 261.873L126.826 201.603C121.815 185.681 125.111 168.296 135.602 155.306C146.094 142.317 162.385 135.451 178.988 137.023C220.501 140.984 248.069 140.824 261.691 136.542C275.314 132.261 297.604 116.794 328.56 90.1424C341.233 79.2493 358.519 75.4548 374.569 80.0426C390.619 84.6305 403.286 96.9869 408.286 112.932L427.064 172.661L491.348 133.201C496.116 130.271 501.996 129.803 507.162 131.942C512.329 134.081 516.157 138.569 517.46 144.014C530.382 198.176 507.621 255.441 460.081 286.62ZM264.556 481.545L229.68 464.86C217.478 459.282 203.056 464.548 197.293 476.686C191.53 488.824 196.562 503.337 208.593 509.275L243.489 525.95C255.69 531.529 270.114 526.263 275.877 514.125C281.64 501.987 276.607 487.473 264.576 481.535L264.556 481.545ZM508.028 378.151C502.369 374.937 495.663 374.111 489.391 375.857C483.119 377.602 477.797 381.775 474.599 387.454L455.574 421.142C449.344 432.9 453.584 447.479 465.14 454.037C476.697 460.595 491.375 456.752 498.26 445.366L517.27 411.673C523.964 399.852 519.826 384.845 508.027 378.151L508.028 378.151Z" fill="#58CC02"/>
  <script xmlns=""/>
</svg>