<svg xmlns="http://www.w3.org/2000/svg" width="46" height="46" viewBox="0 0 46 46" fill="none">
  <path d="M43 15.75C43 13.6789 41.3211 12 39.25 12H32C26.4772 12 22 16.4772 22 22V38.75C22 39.4404 22.5661 40.0158 23.2503 39.9242C27.1589 39.4011 25.7231 36.3478 32.5 36.3478C34.3849 36.3478 37.0687 36.3478 39.2512 36.3478C41.3222 36.3478 43 34.6689 43 32.5978V15.75Z" fill="#8bc34a" />
  <path d="M3 15.75C3 13.6789 4.67893 12 6.75 12H14C19.5228 12 24 16.4772 24 22V38.75C24 39.4404 23.4339 40.0112 22.7468 39.9444C17.9337 39.4767 20.3802 36.2162 13.5 36.2162C11.6151 36.2162 8.93126 36.2162 6.74884 36.2162C4.67777 36.2162 3 34.5373 3 32.4662V15.75Z" fill="#8bc34a" />
  <path fill-rule="evenodd" clip-rule="evenodd" d="M22.1611 34.5422C22.3405 34.8127 22.6502 34.9728 22.9921 34.887C22.9946 34.8864 22.9971 34.8857 22.9996 34.8851C22.6822 34.8047 22.4104 34.6861 22.1611 34.5422ZM23.8381 34.5422C24.1807 34.3444 24.4807 34.0988 24.7982 33.8388C25.829 32.9949 27.0443 32 30.4996 32H36.0007C37.6576 32 38.9996 30.6569 38.9996 29V11C38.9996 9.34315 37.6565 8 35.9996 8H29.9996C26.9876 8 24.3643 9.66458 22.9996 12.124C23.6368 13.2722 23.9996 14.5937 23.9996 16V34C23.9996 34.1998 23.9398 34.3888 23.8381 34.5422Z" fill="#8bc34a" />
  <path d="M39 11C39 9.34315 37.6569 8 36 8H30C25.5817 8 22 11.5817 22 16V34C22 34.5523 22.4558 35.0195 22.9953 34.9016C25.3654 34.3841 25.1512 32 30.5 32C32.0362 32 34.228 32 36.0011 32C37.658 32 39 30.6569 39 29V11Z" fill="#dcedc8" />
  <path d="M7 11C7 9.34315 8.34315 8 10 8H16C20.4183 8 24 11.5817 24 16V34C24 34.5523 23.5484 35.0157 23.0036 34.9249C20.2163 34.4605 20.9338 32 15.5 32C13.9638 32 11.772 32 9.99888 32C8.34202 32 7 30.6569 7 29V11Z" fill="#dcedc8" />
  <path opacity="0.3" fill-rule="evenodd" clip-rule="evenodd" d="M21.5 10.1904V34.3288C21.7533 34.5032 22.0351 34.6558 22.3786 34.7712C22.5342 34.8843 22.7264 34.9412 22.9335 34.9126C22.9566 34.9168 22.98 34.9209 23.0036 34.9248C23.312 34.9762 23.5906 34.85 23.7742 34.6306C24.0406 34.4991 24.2744 34.3399 24.5 34.1658V10.1904C23.9067 10.7523 23.3995 11.4041 23 12.1239C22.6005 11.4041 22.0933 10.7523 21.5 10.1904Z" fill="#8bc34a" />
  <script xmlns="" />
</svg>
