<svg xmlns="http://www.w3.org/2000/svg" width="47" height="46" viewBox="0 0 47 46" fill="none">
  <path fill-rule="evenodd" clip-rule="evenodd"
    d="M7.99609 12H7.74609C5.67503 12 3.99609 13.6789 3.99609 15.75V32.4662C3.99609 34.5373 5.67387 36.2162 7.74493 36.2162H14.4961C18.2996 36.2162 19.2078 37.2126 20.0922 38.1828C20.811 38.9714 21.5141 39.7427 23.7432 39.9474C23.8357 39.9559 23.9259 39.9529 24.0129 39.9397C24.0896 39.9482 24.1687 39.9487 24.2495 39.9402C26.2107 39.7348 26.9203 39.0301 27.657 38.2986C28.6163 37.3459 29.6214 36.3478 33.4961 36.3478H40.2473C42.3183 36.3478 43.9961 34.6689 43.9961 32.5978V15.75C43.9961 13.6789 42.3172 12 40.2461 12H39.9961V14H40.2461C41.2126 14 41.9961 14.7835 41.9961 15.75V32.5978C41.9961 33.5651 41.2129 34.3478 40.2473 34.3478H33.4961C31.4031 34.3478 29.8858 34.6148 28.6919 35.1292C27.4865 35.6486 26.7713 36.3592 26.278 36.8493L26.2477 36.8794C25.8672 37.2573 25.6767 37.434 25.4222 37.5791C25.2007 37.7053 24.8326 37.8583 24.1333 37.9409L23.9726 37.923L23.8231 37.9457C22.991 37.8589 22.5814 37.686 22.3579 37.5558C22.1101 37.4115 21.9389 37.2399 21.5703 36.8355L21.5394 36.8015C21.0843 36.3019 20.4055 35.5566 19.2179 35.0157C18.0463 34.4819 16.5514 34.2162 14.4961 34.2162H7.74493C6.77924 34.2162 5.99609 33.4335 5.99609 32.4662V15.75C5.99609 14.7835 6.7796 14 7.74609 14H7.99609V12Z"
    fill="#AFAFAF" />
  <path fill-rule="evenodd" clip-rule="evenodd"
    d="M37.9961 11C37.9961 10.4477 37.5484 10 36.9961 10H30.9961C27.6824 10 24.9961 12.6863 24.9961 16V31.989C25.1341 31.8774 25.2872 31.7576 25.4528 31.6375C26.752 30.6956 28.4613 30 31.4961 30H36.9972C37.5485 30 37.9961 29.5533 37.9961 29V11ZM36.9961 8C38.6529 8 39.9961 9.34315 39.9961 11V29C39.9961 30.6569 38.6541 32 36.9972 32H31.4961C28.0943 32 26.9426 32.9644 25.9453 33.7996C25.3744 34.2776 24.8541 34.7133 23.9914 34.9016C23.4519 35.0195 22.9961 34.5523 22.9961 34V16C22.9961 11.5817 26.5778 8 30.9961 8H36.9961Z"
    fill="#AFAFAF" />
  <path fill-rule="evenodd" clip-rule="evenodd"
    d="M10.9961 10C10.4438 10 9.99609 10.4477 9.99609 11V29C9.99609 29.5533 10.4437 30 10.995 30H16.4961C19.5929 30 21.2294 30.7264 22.4836 31.7217C22.6882 31.8841 22.8556 32.0233 22.9961 32.1431V16C22.9961 12.6863 20.3098 10 16.9961 10H10.9961ZM10.9961 8C9.33924 8 7.99609 9.34315 7.99609 11V29C7.99609 30.6569 9.33812 32 10.995 32H16.4961C19.7992 32 20.8293 32.9092 21.7553 33.7265C22.3527 34.2538 22.9067 34.7428 23.9997 34.9249C24.5445 35.0157 24.9961 34.5523 24.9961 34V16C24.9961 11.5817 21.4144 8 16.9961 8H10.9961Z"
    fill="#AFAFAF" />
  <script xmlns="" />
</svg>
