<svg xmlns="http://www.w3.org/2000/svg" width="46" height="46" viewBox="0 0 46 46" fill="none">
  <path fill-rule="evenodd" clip-rule="evenodd"
    d="M7.89007 23.7285L9 23.1769V21.9375V21.002C9 13.27 15.268 7.00195 23 7.00195C30.732 7.00195 37 13.27 37 21.002V21.9375V23.1769L38.1099 23.7285C40.4197 24.8763 42 27.2564 42 30.002C42 33.8679 38.866 37.002 35 37.002H31.9444C31.264 37.7622 30.4881 38.4351 29.6356 39.002H35C39.9706 39.002 44 34.9725 44 30.002C44 26.4682 41.9634 23.4102 39 21.9375V21.002C39 12.1654 31.8366 5.00195 23 5.00195C14.1634 5.00195 7 12.1654 7 21.002V21.9375C4.03656 23.4102 2 26.4682 2 30.002C2 34.9725 6.02944 39.002 11 39.002H16.3644C15.5119 38.4351 14.736 37.7622 14.0556 37.002H11C7.13401 37.002 4 33.8679 4 30.002C4 27.2564 5.58032 24.8763 7.89007 23.7285Z"
    fill="#AFAFAF" />
  <mask id="path-2-inside-1" fill="white">
    <path fill-rule="evenodd" clip-rule="evenodd"
      d="M11.0431 19.9775C11.0418 19.9934 11.0405 20.0093 11.0392 20.0252C8.77037 20.256 7 22.1722 7 24.5019C7 26.8182 8.75002 28.7257 11 28.9744V29.0019C11 35.6293 16.3726 41.0019 23 41.0019C29.6274 41.0019 35 35.6293 35 29.0019V28.9744C37.25 28.7257 39 26.8182 39 24.5019C39 22.1722 37.2296 20.256 34.9608 20.0252C34.6102 15.6727 31.9371 11.9759 28.1818 10.1753C25.2572 15.994 19.11 20.0018 12 20.0018C11.679 20.0018 11.36 19.9937 11.0431 19.9775Z" />
  </mask>
  <path
    d="M11.0392 20.0252L11.2416 22.0149L12.899 21.8463L13.0327 20.1858L11.0392 20.0252ZM11.0431 19.9775L11.1448 17.9801L9.21316 17.8818L9.05022 19.8091L11.0431 19.9775ZM11 28.9744H13V27.1833L11.2197 26.9865L11 28.9744ZM35 28.9744L34.7803 26.9865L33 27.1833V28.9744H35ZM34.9608 20.0252L32.9673 20.1858L33.101 21.8463L34.7584 22.0149L34.9608 20.0252ZM28.1818 10.1753L29.0466 8.37189L27.2765 7.52315L26.3949 9.27711L28.1818 10.1753ZM13.0327 20.1858C13.0338 20.1728 13.0349 20.1595 13.036 20.146L9.05022 19.8091C9.04868 19.8273 9.04714 19.8458 9.04563 19.8646L13.0327 20.1858ZM9 24.5019C9 23.2088 9.98326 22.1429 11.2416 22.0149L10.8368 18.0355C7.55748 18.369 5 21.1355 5 24.5019H9ZM11.2197 26.9865C9.97189 26.8486 9 25.7874 9 24.5019H5C5 27.849 7.52816 30.6028 10.7802 30.9623L11.2197 26.9865ZM13 29.0019V28.9744H9V29.0019H13ZM23 39.0019C17.4772 39.0019 13 34.5247 13 29.0019H9C9 36.7339 15.268 43.0019 23 43.0019V39.0019ZM33 29.0019C33 34.5247 28.5228 39.0019 23 39.0019V43.0019C30.732 43.0019 37 36.7339 37 29.0019H33ZM33 28.9744V29.0019H37V28.9744H33ZM37 24.5019C37 25.7874 36.0281 26.8486 34.7803 26.9865L35.2197 30.9623C38.4718 30.6028 41 27.849 41 24.5019H37ZM34.7584 22.0149C36.0167 22.1429 37 23.2088 37 24.5019H41C41 21.1355 38.4425 18.369 35.1632 18.0355L34.7584 22.0149ZM27.3171 11.9787C30.4506 13.4812 32.6756 16.5646 32.9673 20.1858L36.9544 19.8646C36.5449 14.7808 33.4236 10.4706 29.0466 8.37189L27.3171 11.9787ZM26.3949 9.27711C23.8067 14.4264 18.3472 18.0018 12 18.0018V22.0018C19.8728 22.0018 26.7077 17.5616 29.9688 11.0735L26.3949 9.27711ZM12 18.0018C11.7129 18.0018 11.4278 17.9945 11.1448 17.9801L10.9414 21.975C11.2921 21.9928 11.6451 22.0018 12 22.0018V18.0018Z"
    fill="#AFAFAF" mask="url(#path-2-inside-1)" />
  <path
    d="M18 20.502C18 19.6735 18.6716 19.002 19.5 19.002C20.3284 19.002 21 19.6735 21 20.502V24.502C21 25.3304 20.3284 26.002 19.5 26.002C18.6716 26.002 18 25.3304 18 24.502V20.502Z"
    fill="#AFAFAF" />
  <path
    d="M24 20.502C24 19.6735 24.6716 19.002 25.5 19.002C26.3284 19.002 27 19.6735 27 20.502V24.502C27 25.3304 26.3284 26.002 25.5 26.002C24.6716 26.002 24 25.3304 24 24.502V20.502Z"
    fill="#AFAFAF" />
  <path fill-rule="evenodd" clip-rule="evenodd"
    d="M13 20.002C11.6441 20.002 10.3299 19.8389 9.07616 19.5329C9.81045 12.4914 15.7642 7.00195 23 7.00195C24.9765 7.00195 26.8539 7.41045 28.5553 8.14688C28.5552 8.14751 28.555 8.14814 28.5548 8.14876L30.3744 9.09234C30.5613 8.42195 30.7083 7.73558 30.8127 7.0358C28.5021 5.74049 25.8373 5.00195 23 5.00195C14.1634 5.00195 7 12.1654 7 21.002V21.0062C8.87667 21.6511 10.8962 22.002 13 22.002C20.5622 22.002 27.0351 17.4682 29.7001 11.0439L27.962 10.0049C25.6779 15.8249 19.8658 20.002 13 20.002Z"
    fill="#AFAFAF" />
  <script xmlns="" />
</svg>
