<svg xmlns="http://www.w3.org/2000/svg" width="46" height="46" viewBox="0 0 46 46" fill="none">
  <path
    d="M39 20.5C39 25.1944 35.1944 29 30.5 29C25.8056 29 22 25.1944 22 20.5C22 15.8056 25.8056 12 30.5 12C35.1944 12 39 15.8056 39 20.5Z"
    fill="#FEC701" />
  <path
    d="M29 14C29 20.0751 24.0751 25 18 25C11.9249 25 7 20.0751 7 14C7 7.92487 11.9249 3 18 3C24.0751 3 29 7.92487 29 14Z"
    fill="#8bc34a" />
  <path
    d="M29 36C29 39.866 25.866 43 22 43C18.134 43 15 39.866 15 36C15 32.134 18.134 29 22 29C25.866 29 29 32.134 29 36Z"
    fill="#d21034" />
  <script xmlns="" />
</svg>
