<svg xmlns="http://www.w3.org/2000/svg" width="46" height="46" viewBox="0 0 46 46" fill="none">
  <path fill-rule="evenodd" clip-rule="evenodd"
    d="M28.9987 14.1743C28.9996 14.1163 29.0001 14.0582 29.0001 14C29.0001 13.3733 28.9477 12.7588 28.847 12.1606C29.3817 12.0553 29.9344 12 30.5001 12C35.1945 12 39.0001 15.8056 39.0001 20.5C39.0001 25.1944 35.1945 29 30.5001 29C27.0289 29 24.0437 26.9193 22.7236 23.937C23.3355 23.6457 23.9162 23.2994 24.4594 22.9047C25.4154 25.3042 27.7597 27 30.5001 27C34.0899 27 37.0001 24.0899 37.0001 20.5C37.0001 16.9101 34.0899 14 30.5001 14C29.9833 14 29.4807 14.0603 28.9987 14.1743Z"
    fill="#AFAFAF" />
  <path
    d="M28 14C28 19.5228 23.5228 24 18 24C12.4772 24 8 19.5228 8 14C8 8.47715 12.4772 4 18 4C23.5228 4 28 8.47715 28 14Z"
    stroke="#AFAFAF" stroke-width="2" />
  <path
    d="M28 36C28 39.3137 25.3137 42 22 42C18.6863 42 16 39.3137 16 36C16 32.6863 18.6863 30 22 30C25.3137 30 28 32.6863 28 36Z"
    stroke="#AFAFAF" stroke-width="2" />
  <script xmlns="" />
</svg>
